# xmcd CD database file
#
# Track frame offsets:
#	150
#	20611
#	41239
#
# Disc length: 820 seconds
#
# Revision: 0
# Processed by: cddbd v1.5.1PL0 Copyright (c) Steve Scherf et al.
# Submitted via: CDex 1.51
#
DISCID=21033203
DTITLE=aki - 愛の祈り
DYEAR=2005
DGENRE=JPop
TTITLE0=愛の祈り
TTITLE1=淡い風吹けば
TTITLE2=愛の祈り -Instrumental-
EXTD=YEAR: 2005
EXTT0=
EXTT1=
EXTT2=
PLAYORDER=
